<svg width="800" height="242" viewBox="0 0 800 242" fill="none" xmlns="http://www.w3.org/2000/svg">
<path d="M496.304 188.535C449.814 222.802 382.431 241.084 324.415 241.084C243.067 241.084 169.833 210.996 114.429 160.955C110.076 157.02 113.976 151.657 119.2 154.722C178.992 189.51 252.922 210.439 329.29 210.439C380.794 210.439 437.452 199.783 489.548 177.67C497.418 174.327 504 182.824 496.304 188.535Z" fill="#4C4C4C"/>
<path d="M515.631 166.423C509.711 158.831 476.35 162.836 461.376 164.612C456.814 165.169 456.117 161.199 460.226 158.344C486.797 139.643 530.396 145.041 535.48 151.309C540.564 157.612 534.157 201.316 509.188 222.175C505.358 225.379 501.701 223.673 503.408 219.424C509.014 205.425 521.585 174.049 515.631 166.423Z" fill="#4C4C4C"/>
<path d="M462.421 26.3253V8.14748C462.421 5.39642 464.51 3.55078 467.017 3.55078H548.4C551.012 3.55078 553.101 5.43125 553.101 8.14748V23.7136C553.066 26.3253 550.872 29.738 546.972 35.1357L504.801 95.3455C520.471 94.9625 537.013 97.2956 551.221 105.305C554.424 107.116 555.295 109.762 555.539 112.374V131.771C555.539 134.417 552.613 137.517 549.549 135.915C524.511 122.786 491.254 121.359 463.57 136.054C460.749 137.586 457.789 134.522 457.789 131.875V113.454C457.789 110.494 457.824 105.444 460.784 100.952L509.641 30.8872H467.122C464.51 30.8872 462.421 29.0416 462.421 26.3253Z" fill="#4C4C4C"/>
<path d="M165.55 139.747H140.791C138.423 139.572 136.542 137.796 136.368 135.533V8.46206C136.368 5.91994 138.492 3.90016 141.139 3.90016H164.227C166.63 4.00457 168.545 5.85027 168.719 8.14862V24.7594H169.172C175.196 8.7058 186.514 1.21875 201.767 1.21875C217.263 1.21875 226.944 8.7058 233.909 24.7594C239.898 8.7058 253.514 1.21875 268.105 1.21875C278.483 1.21875 289.835 5.50204 296.765 15.1133C304.6 25.8041 302.999 41.3354 302.999 54.9514L302.964 135.15C302.964 137.692 300.84 139.747 298.193 139.747H273.468C270.996 139.572 269.011 137.588 269.011 135.15V67.8013C269.011 62.4385 269.498 49.0662 268.314 43.982C266.469 35.4503 260.932 33.0474 253.758 33.0474C247.769 33.0474 241.5 37.0521 238.958 43.4597C236.416 49.8672 236.66 60.5928 236.66 67.8013V135.15C236.66 137.692 234.536 139.747 231.889 139.747H207.164C204.657 139.572 202.707 137.588 202.707 135.15L202.672 67.8013C202.672 53.6281 205.005 32.7688 187.419 32.7688C169.625 32.7688 170.321 53.1057 170.321 67.8013V135.15C170.321 137.692 168.197 139.747 165.55 139.747Z" fill="#4C4C4C"/>
<path d="M623.166 1.21875C659.905 1.21875 679.789 32.7688 679.789 72.8855C679.789 111.644 657.815 142.393 623.166 142.393C587.089 142.393 567.448 110.843 567.448 71.5274C567.448 31.9679 587.332 1.21875 623.166 1.21875ZM623.375 27.1623C605.127 27.1623 603.978 52.0262 603.978 67.5227C603.978 83.0539 603.734 116.206 623.166 116.206C642.354 116.206 643.259 89.4615 643.259 73.1641C643.259 62.4384 642.806 49.6234 639.568 39.4549C636.782 30.6098 631.245 27.1623 623.375 27.1623Z" fill="#4C4C4C"/>
<path d="M727.428 139.747H702.772C700.3 139.572 698.315 137.588 698.315 135.15L698.28 8.04415C698.489 5.71098 700.544 3.90016 703.051 3.90016H726C728.159 4.00457 729.935 5.46722 730.422 7.45216V26.8837H730.875C737.805 9.50674 747.521 1.21875 764.619 1.21875C775.728 1.21875 786.558 5.22346 793.522 16.1928C800 26.3613 800 43.4597 800 55.7523V135.742C799.721 137.971 797.666 139.747 795.229 139.747H770.4C768.136 139.572 766.256 137.901 766.012 135.742V66.7217C766.012 52.8272 767.614 32.4902 750.515 32.4902C744.491 32.4902 738.954 36.5298 736.203 42.6587C732.721 50.4243 732.268 58.1552 732.268 66.7217V135.15C732.233 137.692 730.074 139.747 727.428 139.747Z" fill="#4C4C4C"/>
<path d="M397.545 79.0493V73.6865C379.646 73.6865 360.737 77.5171 360.737 98.6201C360.737 109.311 366.274 116.554 375.78 116.554C382.745 116.554 388.978 112.271 392.914 105.306C397.789 96.7396 397.545 88.6954 397.545 79.0493ZM422.513 139.398C420.877 140.861 418.509 140.965 416.663 139.99C408.445 133.165 406.982 129.996 402.455 123.484C388.874 137.344 379.263 141.488 361.642 141.488C340.818 141.488 324.59 128.638 324.59 102.903C324.59 82.8103 335.49 69.1246 350.986 62.4385C364.428 56.5185 383.198 55.4738 397.545 53.8371V50.6334C397.545 44.7482 397.998 37.7835 394.55 32.6993C391.521 28.1374 385.74 26.2569 380.656 26.2569C371.218 26.2569 362.791 31.0974 360.737 41.1265C360.319 43.3553 358.682 45.5491 356.453 45.6536L332.425 43.0766C330.405 42.624 328.177 40.9872 328.734 37.888C334.271 8.77554 360.562 0 384.103 0C396.152 0 411.892 3.20376 421.399 12.3275C433.448 23.5755 432.299 38.5844 432.299 54.9166V93.5011C432.299 105.097 437.105 110.182 441.632 116.45C443.233 118.678 443.582 121.36 441.562 123.031C436.513 127.245 427.528 135.08 422.583 139.468L422.513 139.398Z" fill="#4C4C4C"/>
<path d="M72.9552 79.0493V73.6865C55.0559 73.6865 36.1468 77.5171 36.1468 98.6201C36.1468 109.311 41.6837 116.554 51.1905 116.554C58.1552 116.554 64.3886 112.271 68.3237 105.306C73.1989 96.7396 72.9552 88.6954 72.9552 79.0493ZM97.9236 139.398C96.2869 140.861 93.9189 140.965 92.0733 139.99C83.855 133.165 82.3924 129.996 77.8653 123.484C64.2841 137.344 54.6729 141.488 37.0522 141.488C16.2277 141.488 0 128.638 0 102.903C0 82.8103 10.8997 69.1246 26.3962 62.4385C39.8381 56.5185 58.6079 55.4738 72.9552 53.8371V50.6334C72.9552 44.7482 73.4079 37.7835 69.9604 32.6993C66.9307 28.1374 61.15 26.2569 56.0658 26.2569C46.6287 26.2569 38.2014 31.0974 36.1468 41.1265C35.7289 43.3553 34.0922 45.5491 31.8635 45.6536L7.83529 43.0766C5.81552 42.624 3.58681 40.9872 4.14399 37.888C9.68093 8.77554 35.9726 0 59.5133 0C71.5622 0 87.3025 3.20376 96.8093 12.3275C108.858 23.5755 107.709 38.5844 107.709 54.9166V93.5011C107.709 105.097 112.515 110.182 117.042 116.45C118.644 118.678 118.992 121.36 116.972 123.031C111.923 127.245 102.938 135.08 97.9933 139.468L97.9236 139.398Z" fill="#4C4C4C"/>
</svg>
