<svg width="1100" height="1100" viewBox="0 0 1100 1100" fill="none" xmlns="http://www.w3.org/2000/svg">
<circle cx="550" cy="550" r="550" fill="white"/>
<path d="M604.979 209C593.196 209 583.141 213.164 574.812 221.493C566.484 229.821 562.319 239.877 562.319 251.66C562.319 263.661 566.545 273.771 574.996 281.991L800.666 507.66H135.659C123.877 507.66 113.821 511.824 105.492 520.153C97.1639 528.481 92.9996 538.537 92.9996 550.32C92.9996 562.103 97.1639 572.158 105.492 580.487C113.821 588.815 123.877 592.979 135.659 592.979H800.666L574.996 818.649C566.545 826.868 562.319 836.978 562.319 848.979C562.319 860.762 566.484 870.818 574.812 879.147C583.141 887.475 593.196 891.639 604.979 891.639C616.98 891.639 627.091 887.53 635.31 879.31L933.97 580.651C942.189 571.981 946.299 561.87 946.299 550.32C946.299 538.769 942.189 528.659 933.97 519.989L635.31 221.329C626.859 213.11 616.748 209 604.979 209Z" fill="black"/>
</svg>
