<svg width="854" height="683" viewBox="0 0 854 683" fill="none" xmlns="http://www.w3.org/2000/svg">
<path d="M511.979 0C500.196 0 490.141 4.16426 481.812 12.4928C473.484 20.8213 469.319 30.877 469.319 42.6599C469.319 54.6611 473.545 64.7714 481.996 72.9907L707.666 298.66H42.6595C30.8767 298.66 20.821 302.824 12.4924 311.153C4.1639 319.481 -0.000366211 329.537 -0.000366211 341.32C-0.000366211 353.103 4.1639 363.158 12.4924 371.487C20.821 379.815 30.8767 383.979 42.6595 383.979H707.666L481.996 609.649C473.545 617.868 469.319 627.978 469.319 639.979C469.319 651.762 473.484 661.818 481.812 670.147C490.141 678.475 500.196 682.639 511.979 682.639C523.98 682.639 534.091 678.53 542.31 670.31L840.97 371.651C849.189 362.981 853.299 352.87 853.299 341.32C853.299 329.769 849.189 319.659 840.97 310.989L542.31 12.329C533.859 4.10966 523.748 0 511.979 0Z" fill="#B9FF66"/>
</svg>
