<svg width="3013" height="3528" viewBox="0 0 3013 3528" fill="none" xmlns="http://www.w3.org/2000/svg">
<path d="M2075 2136C2075 2173.48 2047.07 2209.92 1994.73 2243.63C1942.52 2277.26 1866.77 2307.65 1772.9 2333.22C1585.2 2384.34 1325.72 2416 1039 2416C752.276 2416 492.803 2384.34 305.104 2333.22C211.234 2307.65 135.485 2277.26 83.274 2243.63C30.9282 2209.92 3 2173.48 3 2136C3 2098.52 30.9282 2062.08 83.274 2028.37C135.485 1994.74 211.234 1964.35 305.104 1938.78C492.803 1887.66 752.276 1856 1039 1856C1325.72 1856 1585.2 1887.66 1772.9 1938.78C1866.77 1964.35 1942.52 1994.74 1994.73 2028.37C2047.07 2062.08 2075 2098.52 2075 2136Z" stroke="#1F1F1F" stroke-width="6"/>
<path d="M2075 2300C2075 2337.48 2047.07 2373.92 1994.73 2407.63C1942.52 2441.26 1866.77 2471.65 1772.9 2497.22C1585.2 2548.34 1325.72 2580 1039 2580C752.276 2580 492.803 2548.34 305.104 2497.22C211.234 2471.65 135.485 2441.26 83.274 2407.63C30.9282 2373.92 3 2337.48 3 2300C3 2262.52 30.9282 2226.08 83.274 2192.37C135.485 2158.74 211.234 2128.35 305.104 2102.78C492.803 2051.66 752.276 2020 1039 2020C1325.72 2020 1585.2 2051.66 1772.9 2102.78C1866.77 2128.35 1942.52 2158.74 1994.73 2192.37C2047.07 2226.08 2075 2262.52 2075 2300Z" stroke="#1F1F1F" stroke-width="6"/>
<path d="M2075 2483C2075 2520.48 2047.07 2556.92 1994.73 2590.63C1942.52 2624.26 1866.77 2654.65 1772.9 2680.22C1585.2 2731.34 1325.72 2763 1039 2763C752.276 2763 492.803 2731.34 305.104 2680.22C211.234 2654.65 135.485 2624.26 83.274 2590.63C30.9282 2556.92 3 2520.48 3 2483C3 2445.52 30.9282 2409.08 83.274 2375.37C135.485 2341.74 211.234 2311.35 305.104 2285.78C492.803 2234.66 752.276 2203 1039 2203C1325.72 2203 1585.2 2234.66 1772.9 2285.78C1866.77 2311.35 1942.52 2341.74 1994.73 2375.37C2047.07 2409.08 2075 2445.52 2075 2483Z" stroke="#1F1F1F" stroke-width="6"/>
<circle cx="1005" cy="1600" r="700" fill="black"/>
<ellipse cx="764" cy="1422.5" rx="119" ry="304.5" fill="white"/>
<ellipse cx="1263" cy="1418.5" rx="119" ry="304.5" fill="white"/>
<path d="M2303.56 1742L2530.36 2483.5H2076.76L2303.56 1742Z" fill="#D9D9D9"/>
<path d="M2303.56 3225L2076.76 2483.5H2530.36L2303.56 3225Z" fill="#D9D9D9"/>
<path d="M1513 2498.22L2254.5 2271.42V2725.02L1513 2498.22Z" fill="#D9D9D9"/>
<path d="M1766.87 1976.25L2451.56 2340.19L2130.82 2660.94L1766.87 1976.25Z" fill="#D8D8D8"/>
<path d="M2827.82 1948.03L2143.13 2311.98L2463.87 2632.72L2827.82 1948.03Z" fill="#D8D8D8"/>
<path d="M2996 2498.22L2254.5 2271.42V2725.02L2996 2498.22Z" fill="#D9D9D9"/>
<path d="M2810.65 3020.02L2125.96 2656.07L2446.7 2335.33L2810.65 3020.02Z" fill="#D8D8D8"/>
<path d="M1779.75 2996.71L2143.7 2312.02L2464.44 2632.77L1779.75 2996.71Z" fill="#D8D8D8"/>
<path d="M857 2328L1204.85 2927.88H509.151L857 2328Z" fill="#B9FF66"/>
<path d="M857 3528L1204.85 2928.12H509.151L857 3528Z" fill="#B9FF66"/>
<path d="M1457 2944.45L857.125 2596.6V3292.29L1457 2944.45Z" fill="#B9FF66"/>
<path d="M257 2944.45L856.875 2596.6V3292.29L257 2944.45Z" fill="#B9FF66"/>
<path d="M2146.98 397.904L2535.42 186.642L2290.54 520.638L2288.21 523.817L2292.07 524.57L2738.91 611.5L2292.07 698.43L2288.21 699.183L2290.54 702.362L2535.42 1036.36L2146.98 825.096L2144.17 823.572L2143.36 826.658L2042 1213.15L1940.64 826.658L1939.83 823.572L1937.02 825.096L1548.58 1036.36L1793.46 702.362L1795.79 699.183L1791.93 698.43L1345.09 611.5L1791.93 524.57L1795.79 523.817L1793.46 520.638L1548.58 186.642L1937.02 397.904L1939.83 399.428L1940.64 396.342L2042 9.85454L2143.36 396.342L2144.17 399.428L2146.98 397.904Z" stroke="white" stroke-width="5"/>
</svg>
