<svg width="800" height="196" viewBox="0 0 800 196" fill="none" xmlns="http://www.w3.org/2000/svg">
<path d="M791.551 135.351C789.07 133.553 787.104 133.299 785.48 136.719C757.61 196.988 710.675 166.898 715.378 169.546C725.807 164.757 753.165 142.872 749.061 112.524C746.582 93.9736 730.68 85.7665 713.754 88.7569C684.26 93.8876 673.488 125.69 678.959 153.816C679.899 158.688 681.609 162.621 683.406 166.554C650.149 193.653 636.899 142.36 635.359 136.205C635.275 135.863 661.093 114.404 668.274 63.1974C675.797 9.59406 658.698 -0.237292 641.174 0.104753C608.773 0.702842 600.052 68.3261 611.764 124.664C610.824 124.92 606.207 127.484 598.856 127.742C593.555 111.07 570.9 96.452 565.001 102.095C550.211 116.201 568.592 143.726 581.588 145.865C573.807 193.825 525.078 181.942 534.139 121.843C549.955 92.4334 562.095 48.5774 559.873 22.1618C559.103 12.8405 552.178 0.276752 536.534 0.874842C506.441 2.07102 503.193 69.6943 506.697 117.739C506.527 116.543 504.817 123.552 492.506 127.058C489.599 110.9 463.526 94.5717 457.371 102.437C445.915 117.057 465.834 143.13 475.237 144.925C467.458 192.885 418.729 181.002 427.791 120.903C443.693 91.4933 455.746 47.7233 453.608 21.3076C452.84 11.9884 445.915 -0.579337 430.269 0.0207072C400.177 1.21689 396.928 68.8401 400.435 116.883C400.263 115.687 398.553 122.954 385.729 126.374C385.303 105.343 359.143 95.7679 352.816 102.437C341.617 114.404 355.381 138.94 368.118 144.925C360.339 192.885 311.611 181.002 320.672 120.903C336.488 91.4933 348.628 47.6373 346.405 21.2216C345.721 11.9884 338.796 -0.579337 323.15 0.0207072C293.058 1.21689 290.666 72.2586 294.17 120.303C284.253 162.793 250.998 215.796 255.357 109.534C255.785 102.095 256.213 99.2724 252.537 96.452C249.716 94.3156 243.389 95.3398 239.969 95.4258C235.78 95.5978 234.67 98.0762 233.814 101.753C231.678 111.328 231.25 120.645 230.908 133.383C230.738 139.368 230.224 142.104 227.915 150.225C225.607 158.346 212.613 173.136 205.432 170.658C195.515 167.238 198.763 139.282 200.644 120.047C202.184 104.831 197.225 98.0781 184.573 95.5959C177.134 94.0596 172.604 94.3156 164.911 91.8353C157.558 89.529 155.933 75.6791 140.375 80.2957C131.826 82.8601 137.297 100.897 135.245 114.32C125.157 180.231 104.212 182.026 94.4669 150.053C138.237 42.6786 107.035 0.360798 88.8242 0.360798C69.8456 0.360798 48.1306 13.4426 57.2779 97.2221C52.8332 95.9399 51.4651 95.2558 46.5064 95.2558C18.8926 95.1698 0 117.569 0 145.181C0 172.794 18.8926 195.193 46.5924 195.193C62.9206 195.193 74.3762 187.754 83.0954 176.299C88.7382 184.422 95.6631 195.364 108.315 194.851C145.93 193.397 156.874 116.201 158.156 111.842C162.174 112.438 166.021 113.636 169.697 114.234C175.854 115.175 176.366 117.655 176.194 123.81C174.572 176.299 184.231 194.681 206.202 194.681C218.426 194.681 229.369 182.626 236.892 174.077C242.535 185.704 251.424 194.337 263.48 194.679C292.546 195.364 303.746 149.029 302.719 155.1C301.949 159.885 312.123 194.337 342.131 194.509C379.232 194.679 386.157 153.902 386.927 147.063C387.097 145.865 387.013 145.695 386.927 147.063V147.489C398.725 145.267 404.794 139.026 404.794 139.026C404.794 139.026 414.283 195.193 449.25 194.593C485.583 193.909 492.506 157.066 493.362 149.883C493.532 148.345 493.448 148.173 493.362 149.883V150.053C507.382 144.925 511.058 139.882 511.058 139.882C511.058 139.882 518.581 194.937 555.512 195.45C588.427 195.878 600.65 162.109 600.736 148.003C606.293 148.087 616.553 144.669 616.296 144.499C616.296 144.499 628.35 192.629 662.033 195.107C677.849 196.304 689.731 186.216 696.485 181.602C712.386 194.509 765.305 210.924 798.731 154.244C803.518 146.207 793.345 136.549 791.551 135.351ZM45.2242 176.469C29.066 176.469 18.7206 161.509 18.7206 145.437C18.7206 129.365 28.2119 114.402 44.3701 114.402C51.6351 114.402 55.6536 115.173 61.3824 120.129C62.4066 124.15 65.3149 133.467 66.7672 137.742C68.6474 143.384 70.9557 148.257 73.1781 153.472C69.8456 166.978 59.2441 176.469 45.2242 176.469ZM84.5496 120.559C83.8655 119.447 84.0355 120.129 83.2674 119.105C80.361 111.07 74.6322 93.1156 73.9481 72.6847C73.18 49.6016 77.0266 22.5019 88.3961 22.5019C96.0912 22.5019 104.298 77.3854 84.5496 120.559ZM312.037 96.536C310.243 82.8581 310.157 21.7318 324.776 23.442C332.898 26.6904 319.646 84.3103 312.037 96.536ZM419.155 96.536C417.361 82.8581 417.275 21.7318 431.895 23.442C440.016 26.6904 426.764 84.3103 419.155 96.536ZM525.42 97.3901C523.624 83.7123 523.54 22.5879 538.158 24.2961C546.279 27.4605 533.029 85.1664 525.42 97.3901ZM642.712 19.7655C656.134 18.3973 655.536 76.9593 628.692 113.89C625.186 100.555 619.887 24.3821 642.712 19.7655ZM699.136 145.863C694.861 124.064 705.975 109.786 717.43 108.248C721.449 107.65 727.262 110.214 728.372 115.089C730.254 124.236 728.116 137.828 702.384 155.01C702.47 155.096 700.076 150.651 699.136 145.863ZM244.416 78.6695C253.563 78.6695 261 71.2325 261 62.0852C261 52.938 253.563 45.501 244.416 45.501C235.268 45.501 227.829 52.938 227.829 62.0852C227.829 71.2325 235.268 78.6695 244.416 78.6695Z" fill="#4C4C4C"/>
</svg>
