<svg width="14179" height="13818" viewBox="0 0 14179 13818" fill="none" xmlns="http://www.w3.org/2000/svg">
<path d="M6426.03 13180.8L6672.21 12153.8L7453.01 12934.6L6426.03 13180.8Z" fill="black"/>
<path d="M7698.82 11908L7452.63 12935L6671.83 12154.2L7698.82 11908Z" fill="black"/>
<path d="M7705.51 13174.9L6678.53 12928.7L7459.33 12147.9L7705.51 13174.9Z" fill="black"/>
<path d="M6432.72 11902.1L7459.7 12148.3L6678.9 12929.1L6432.72 11902.1Z" fill="black"/>
<path d="M78.5493 10499.1L1625.09 9658.68L1528.77 11496.5L78.5493 10499.1Z" fill="black"/>
<path d="M3074.43 10656.1L1527.89 11496.5L1624.21 9658.63L3074.43 10656.1Z" fill="black"/>
<path d="M1512.83 12077.2L672.435 10530.6L2510.28 10626.9L1512.83 12077.2Z" fill="black"/>
<path d="M1669.83 9081.28L2510.23 10627.8L672.384 10531.5L1669.83 9081.28Z" fill="black"/>
<circle cx="1415" cy="3029" r="750" fill="black"/>
<circle cx="3181" cy="3764" r="450" fill="#B9FF66"/>
<circle cx="11829" cy="12232" r="350" fill="#B9FF66"/>
<path d="M10821.5 11395.5C10720.5 11585.4 10485.4 11695 10141.8 11727.8C9798.56 11760.5 9349.93 11716.2 8826.56 11601.2C7779.97 11371.3 6436.84 10859.3 5045.44 10119.5C3654.05 9379.65 2478.48 8552.47 1702.62 7813.38C1314.64 7443.79 1027.04 7096.63 862.248 6793.81C697.235 6490.57 656.68 6234.35 757.637 6044.48C858.593 5854.61 1093.68 5744.96 1437.35 5712.19C1780.55 5679.47 2229.18 5723.77 2752.55 5838.75C3799.14 6068.68 5142.27 6580.71 6533.67 7320.53C7925.06 8060.35 9100.63 8887.53 9876.49 9626.62C10264.5 9996.21 10552.1 10343.4 10716.9 10646.2C10881.9 10949.4 10922.4 11205.6 10821.5 11395.5Z" stroke="#1F1F1F" stroke-width="20"/>
<path d="M11862 10722C11761.1 10911.9 11526 11021.6 11182.3 11054.3C10839.1 11087 10390.5 11042.7 9867.12 10927.8C8820.53 10697.8 7477.4 10185.8 6086 9445.99C4694.6 8706.17 3519.04 7878.98 2743.17 7139.9C2355.19 6770.3 2067.59 6423.14 1902.8 6120.32C1737.79 5817.08 1697.24 5560.87 1798.19 5371C1899.15 5181.12 2134.24 5071.47 2477.91 5038.71C2821.11 5005.99 3269.74 5050.29 3793.1 5165.27C4839.69 5395.19 6182.83 5907.22 7574.22 6647.04C8965.62 7386.86 10141.2 8214.05 10917 8953.13C11305 9322.73 11592.6 9669.89 11757.4 9972.71C11922.4 10275.9 11963 10532.2 11862 10722Z" stroke="#1F1F1F" stroke-width="20"/>
<path d="M12986 10124C12885.1 10313.9 12650 10423.6 12306.3 10456.3C11963.1 10489 11514.5 10444.7 10991.1 10329.8C9944.53 10099.8 8601.4 9587.81 7210 8847.99C5818.6 8108.17 4643.04 7280.98 3867.17 6541.9C3479.19 6172.3 3191.59 5825.14 3026.8 5522.32C2861.79 5219.08 2821.24 4962.87 2922.19 4773C3023.15 4583.12 3258.24 4473.47 3601.91 4440.71C3945.11 4407.99 4393.74 4452.29 4917.1 4567.27C5963.69 4797.19 7306.83 5309.22 8698.22 6049.04C10089.6 6788.86 11265.2 7616.05 12041 8355.13C12429 8724.73 12716.6 9071.89 12881.4 9374.71C13046.4 9677.95 13087 9934.16 12986 10124Z" stroke="#1F1F1F" stroke-width="20"/>
<circle cx="9752" cy="900" r="900" fill="black"/>
<path d="M9752 505.4C9817.4 428.6 9917.6 380 10022 380C10206.8 380 10352 525.2 10352 710C10352 936.613 10148.3 1121.3 9839.76 1401.11L9839 1401.8L9752 1481L9665 1402.4L9662.63 1400.25C9354.96 1120.65 9152 936.22 9152 710C9152 525.2 9297.2 380 9482 380C9586.4 380 9686.6 428.6 9752 505.4Z" fill="white"/>
<circle cx="11601.7" cy="6498.75" r="919.109" fill="black"/>
<path d="M11293.4 5925.31C11296.3 5892.33 11333.8 5874.85 11360.9 5893.83L12253.1 6518.59C12280.2 6537.57 12276.6 6578.79 12246.6 6592.78L11259.5 7053.11C11229.5 7067.1 11195.6 7043.36 11198.5 7010.39L11293.4 5925.31Z" fill="white"/>
<circle cx="8576" cy="3764" r="850" fill="#B9FF66"/>
<path d="M9095.44 4091.19C9095.44 4203.58 9004.34 4294.63 8892.03 4294.63C8779.63 4294.63 8688.55 4203.58 8688.55 4091.19C8688.55 4087.51 8688.89 4083.91 8689.09 4080.26L8286.36 3874.94C8252.59 3899.97 8210.86 3914.98 8165.59 3914.98C8053.19 3914.98 7962.11 3823.9 7962.11 3711.53C7962.11 3599.16 8053.19 3508.09 8165.59 3508.09C8215.89 3508.09 8261.87 3526.46 8297.4 3556.73L8689.49 3356.82C8688.92 3350.73 8688.55 3344.65 8688.55 3338.44C8688.55 3226.11 8779.63 3135 8892.03 3135C9004.34 3135 9095.44 3226.11 9095.44 3338.44C9095.44 3450.81 9004.34 3541.89 8892.03 3541.89C8841.91 3541.89 8796.16 3523.72 8760.72 3493.73L8368.12 3693.92C8368.63 3699.73 8369 3705.59 8369 3711.53C8369 3722.09 8367.93 3732.37 8366.4 3742.51L8755.34 3940.8C8791.47 3907.96 8839.31 3887.74 8892.03 3887.74C9004.34 3887.74 9095.44 3978.85 9095.44 4091.19Z" fill="black"/>
<circle cx="13179" cy="3029" r="992.5" fill="#B9FF66" stroke="#1F1F1F" stroke-width="15"/>
<path d="M13179 2362.33C12902.9 2362.33 12679 2586.21 12679 2862.33C12679 2971.06 12714.6 3070.83 12773.9 3152.54C12775 3154.5 12775.1 3156.69 12776.3 3158.56L13109.7 3658.56C13125.1 3681.75 13151.2 3695.67 13179 3695.67C13206.8 3695.67 13232.9 3681.75 13248.3 3658.56L13581.7 3158.56C13582.9 3156.69 13583 3154.5 13584.1 3152.54C13643.4 3070.83 13679 2971.06 13679 2862.33C13679 2586.21 13455.1 2362.33 13179 2362.33ZM13179 3029C13087 3029 13012.3 2954.37 13012.3 2862.33C13012.3 2770.29 13087 2695.67 13179 2695.67C13271 2695.67 13345.7 2770.29 13345.7 2862.33C13345.7 2954.37 13271 3029 13179 3029Z" fill="#231F20"/>
</svg>
