<svg width="800" height="227" viewBox="0 0 800 227" fill="none" xmlns="http://www.w3.org/2000/svg">
<path d="M86.6415 37.5547V101.517H27.8792V37.5547H0V190.241H27.8868V128.355H86.634V190.241H114.528V37.5547H86.6415ZM203.789 140.891C203.789 147.011 201.358 152.88 197.03 157.207C192.703 161.535 186.833 163.966 180.713 163.966C174.593 163.966 168.724 161.535 164.396 157.207C160.069 152.88 157.638 147.011 157.638 140.891V75.4868H131.185V140.891C131.185 154.013 136.398 166.598 145.677 175.878C154.956 185.157 167.541 190.37 180.664 190.37C193.787 190.37 206.372 185.157 215.651 175.878C224.93 166.598 230.143 154.013 230.143 140.891V75.4868H203.789V140.891ZM399.796 82.2264C399.796 68.8151 408.664 64.566 418.377 64.566C426.211 64.566 436.551 70.5283 443.321 77.7585L460.642 57.3358C451.992 45.6377 434.453 37.5547 420.091 37.5547C391.389 37.5547 370.634 54.3622 370.634 82.2264C370.634 133.924 433.819 117.517 433.819 146.453C433.819 155.374 425.155 163.253 415.238 163.253C399.592 163.253 394.521 155.608 387.336 147.517L368.106 167.509C380.408 182.604 395.577 190.272 413.743 190.272C441.011 190.272 462.943 173.26 462.943 146.664C462.943 89.2754 399.751 107.109 399.751 82.2264M790.694 165.849C775.064 165.849 770.619 159.087 770.619 148.732V102.883H794.921V79.6528H770.619V49.0037L743.796 61.0415V154.43C743.796 178.317 760.279 190.355 782.875 190.355C786.423 190.415 789.97 190.128 793.457 189.509L800 165.419C797.049 165.623 793.66 165.826 790.694 165.826M304.483 76.249C291.381 76.249 282.234 80.0528 273.389 88.7245V38.4679H246.898V131.623C246.898 166.491 272.106 190.385 300.438 190.385C331.864 190.385 359.509 166.068 359.509 133.328C359.509 100.996 334.068 76.2717 304.483 76.2717M304.317 163.721C300.369 163.721 296.459 162.943 292.812 161.432C289.164 159.921 285.85 157.707 283.058 154.915C280.267 152.123 278.052 148.809 276.541 145.162C275.03 141.514 274.253 137.605 274.253 133.657C274.253 129.708 275.03 125.799 276.541 122.152C278.052 118.504 280.267 115.19 283.058 112.398C285.85 109.606 289.164 107.392 292.812 105.881C296.459 104.37 300.369 103.592 304.317 103.592C312.29 103.592 319.937 106.76 325.576 112.398C331.214 118.036 334.381 125.683 334.381 133.657C334.381 141.63 331.214 149.277 325.576 154.915C319.937 160.553 312.29 163.721 304.317 163.721ZM592.181 131.94C592.181 99.1396 564.596 74.883 533.109 74.883C504.785 74.883 479.57 98.7698 479.57 133.645V226.853H506.06V176.528C514.891 185.185 524.053 189.004 537.14 189.004C566.725 189.004 592.181 164.279 592.181 131.94ZM567.094 131.608C567.094 139.581 563.927 147.228 558.289 152.866C552.651 158.504 545.004 161.672 537.03 161.672C529.057 161.672 521.41 158.504 515.772 152.866C510.133 147.228 506.966 139.581 506.966 131.608C506.966 123.634 510.133 115.987 515.772 110.349C521.41 104.711 529.057 101.543 537.03 101.543C545.004 101.543 552.651 104.711 558.289 110.349C563.927 115.987 567.094 123.634 567.094 131.608Z" fill="#4C4C4C"/>
<path d="M677.781 73.6V46.9811C681.299 45.3371 684.277 42.7279 686.37 39.457C688.462 36.1862 689.582 32.3884 689.6 28.5057V27.8943C689.6 16.5736 680.423 7.39622 669.102 7.39622H668.491C663.054 7.39622 657.841 9.55583 653.996 13.4C650.152 17.2441 647.993 22.4579 647.993 27.8943V28.5057C648.011 32.3884 649.131 36.1862 651.223 39.457C653.316 42.7279 656.294 45.3371 659.812 46.9811V73.6C649.702 75.148 640.18 79.3398 632.212 85.7509L559.208 28.8906C559.729 27.0113 560 25.0792 560.03 23.1396C560.039 18.5714 558.693 14.1031 556.162 10.2999C553.632 6.49678 550.03 3.52966 545.812 1.77388C541.595 0.0180974 536.952 -0.447471 532.47 0.436064C527.988 1.3196 523.868 3.51255 520.633 6.73752C517.397 9.96249 515.191 14.0746 514.293 18.5537C513.394 23.0328 513.845 27.6777 515.587 31.9008C517.329 36.1239 520.284 39.7355 524.079 42.2787C527.874 44.822 532.338 46.1827 536.906 46.1887C540.903 46.1698 544.824 45.1029 548.28 43.0943L620.166 99.0339C613.708 108.79 610.339 120.265 610.498 131.964C610.657 143.662 614.336 155.042 621.057 164.619L599.193 186.491C597.425 185.925 595.584 185.625 593.729 185.6C589.979 185.603 586.314 186.717 583.197 188.803C580.081 190.888 577.652 193.85 576.218 197.315C574.785 200.78 574.41 204.592 575.143 208.27C575.875 211.947 577.681 215.325 580.333 217.977C582.984 220.629 586.362 222.435 590.04 223.167C593.717 223.899 597.53 223.525 600.995 222.091C604.46 220.658 607.422 218.229 609.507 215.112C611.592 211.996 612.707 208.331 612.71 204.581C612.685 202.726 612.385 200.884 611.819 199.117L633.449 177.479C640.503 182.909 648.706 186.653 657.429 188.423C666.153 190.194 675.166 189.944 683.779 187.693C692.391 185.442 700.374 181.249 707.115 175.436C713.857 169.623 719.179 162.345 722.673 154.157C726.167 145.97 727.74 137.092 727.273 128.202C726.806 119.313 724.31 110.649 719.977 102.873C715.644 95.0971 709.588 88.4163 702.274 83.3423C694.961 78.2684 686.582 74.9358 677.781 73.6ZM668.815 161.147C664.818 161.257 660.839 160.565 657.113 159.111C653.388 157.657 649.992 155.471 647.126 152.683C644.259 149.894 641.981 146.559 640.425 142.875C638.869 139.191 638.068 135.233 638.068 131.234C638.068 127.235 638.869 123.276 640.425 119.592C641.981 115.908 644.259 112.574 647.126 109.785C649.992 106.997 653.388 104.811 657.113 103.357C660.839 101.903 664.818 101.211 668.815 101.321C676.563 101.592 683.903 104.86 689.29 110.435C694.676 116.011 697.689 123.459 697.693 131.212C697.697 138.964 694.692 146.416 689.311 151.997C683.93 157.578 676.593 160.853 668.846 161.132" fill="#4C4C4C"/>
</svg>
