<svg width="800" height="291" viewBox="0 0 800 291" fill="none" xmlns="http://www.w3.org/2000/svg">
<path d="M363.655 198.458V121.706H365.009L420.301 198.458H437.701V85.7465H418.368V162.305H417.014L361.722 85.7465H344.322V198.458H363.655ZM492.413 200.198C517.932 200.198 533.592 183.571 533.592 155.732C533.592 128.086 517.932 111.266 492.413 111.266C467.087 111.266 451.234 128.086 451.234 155.732C451.427 183.571 466.893 200.198 492.413 200.198ZM492.413 183.958C478.88 183.958 471.147 173.712 471.147 155.732C471.147 137.946 478.88 127.506 492.413 127.506C505.946 127.506 513.679 137.946 513.679 155.732C513.679 173.712 505.946 183.958 492.413 183.958ZM551.185 92.1263V113.586H537.652V129.052H551.185V175.645C551.185 192.271 558.918 198.844 578.638 198.844C582.311 198.844 585.985 198.458 588.885 197.878V182.798C586.565 182.991 585.018 183.185 582.311 183.185C574.191 183.185 570.518 179.511 570.518 171.005V129.052H588.885V113.586H570.518V92.1263H551.185ZM600.484 198.458H619.817V113.006H600.484V198.458ZM610.151 98.8929C616.531 98.8929 621.751 93.673 621.751 87.2931C621.751 80.7199 616.531 75.5 610.151 75.5C603.771 75.5 598.551 80.7199 598.551 87.2931C598.551 93.673 603.771 98.8929 610.151 98.8929ZM672.79 200.198C698.309 200.198 713.969 183.571 713.969 155.732C713.969 128.086 698.309 111.266 672.79 111.266C647.463 111.266 631.61 128.086 631.61 155.732C631.61 183.571 647.077 200.198 672.79 200.198ZM672.79 183.958C659.257 183.958 651.523 173.712 651.523 155.732C651.523 137.946 659.257 127.506 672.79 127.506C686.129 127.506 694.056 137.946 694.056 155.732C693.863 173.712 686.129 183.958 672.79 183.958ZM725.375 198.458H744.708V148.772C744.708 136.206 752.055 128.279 763.461 128.279C775.254 128.279 780.668 134.852 780.668 147.805V198.458H800.001V143.165C800.001 122.672 789.561 111.266 770.615 111.266C757.855 111.266 749.348 117.066 745.288 126.732H743.935V113.006H725.182C725.375 113.006 725.375 198.458 725.375 198.458Z" fill="#4C4C4C"/>
<path fill-rule="evenodd" clip-rule="evenodd" d="M48.1391 50.9486C57.2256 58.2951 60.5122 57.7151 77.5253 56.5551L237.796 46.8886C241.276 46.8886 238.376 43.4087 237.216 43.022L210.536 23.8824C205.51 20.0158 198.55 15.3759 185.597 16.5359L30.5461 27.9423C24.9396 28.5223 23.7796 31.4223 26.0995 33.5489L48.1391 50.9486ZM57.8056 88.2612V256.845C57.8056 265.931 62.2522 269.218 72.4987 268.638L248.622 258.391C258.869 257.811 260.029 251.625 260.029 244.278V76.8548C260.029 69.5082 257.129 65.4483 250.942 66.0283L66.8921 76.8548C60.1256 77.4348 57.8056 80.9147 57.8056 88.2612ZM231.609 97.3477C232.769 102.374 231.609 107.594 226.583 108.174L218.076 109.914V234.419C210.73 238.285 203.963 240.605 198.163 240.605C189.077 240.605 186.757 237.705 179.99 229.199L124.504 142.007V226.299L142.097 230.165C142.097 230.165 142.097 240.412 127.984 240.412L88.9317 242.732C87.7718 240.412 88.9317 234.805 92.7983 233.645L103.045 230.745V119.387L88.9317 118.227C87.7718 113.201 90.6717 105.854 98.5982 105.274L140.551 102.374L198.356 190.533V112.621L183.663 110.881C182.503 104.694 187.143 100.054 192.75 99.4744L231.609 97.3477ZM17.593 12.4759L179.023 0.682801C198.743 -1.05717 203.963 0.102815 216.336 9.18932L267.762 45.342C276.268 51.5286 279.168 53.2685 279.168 60.0351V258.585C279.168 270.958 274.722 278.304 258.869 279.464L71.5321 290.871C59.5456 291.451 53.939 289.711 47.7525 281.784L9.66649 232.485C2.89995 223.399 0 216.632 0 208.706V32.1956C0 21.9491 4.63991 13.6359 17.593 12.4759Z" fill="#4C4C4C"/>
</svg>
