<svg width="3698" height="806" viewBox="0 0 3698 806" fill="none" xmlns="http://www.w3.org/2000/svg">
<mask id="mask0_80_19" style="mask-type:alpha" maskUnits="userSpaceOnUse" x="0" y="0" width="3698" height="806">
<rect width="3698" height="806" fill="#D9D9D9"/>
</mask>
<g mask="url(#mask0_80_19)">
<path d="M51.0121 721.409L174.103 207.917L564.504 598.318L51.0121 721.409Z" fill="black"/>
<path d="M687.408 85.0133L564.317 598.505L173.916 208.104L687.408 85.0133Z" fill="black"/>
<path d="M690.757 718.433L177.265 595.343L567.666 204.942L690.757 718.433Z" fill="black"/>
<path d="M54.3609 82.0375L567.852 205.128L177.452 595.529L54.3609 82.0375Z" fill="black"/>
<path d="M1051.4 732L987 242H1078.7L1126.3 667.6H1138.9L1200.5 242H1360.1L1421.7 667.6H1434.3L1481.9 242H1573.6L1509.2 732H1349.6L1286.6 296.6H1274L1211 732H1051.4ZM1643.91 732V384.8H1732.11V732H1643.91ZM1688.01 344.2C1672.14 344.2 1658.61 339.067 1647.41 328.8C1636.67 318.533 1631.31 305 1631.31 288.2C1631.31 271.4 1636.67 257.867 1647.41 247.6C1658.61 237.333 1672.14 232.2 1688.01 232.2C1704.34 232.2 1717.87 237.333 1728.61 247.6C1739.34 257.867 1744.71 271.4 1744.71 288.2C1744.71 305 1739.34 318.533 1728.61 328.8C1717.87 339.067 1704.34 344.2 1688.01 344.2ZM1817.24 732V627L2007.64 468.8V457.6H1824.24V384.8H2104.24V489.8L1913.84 648V659.2H2109.84V732H1817.24ZM2299.95 741.8C2275.22 741.8 2253.05 737.6 2233.45 729.2C2213.85 720.333 2198.22 707.733 2186.55 691.4C2175.35 674.6 2169.75 654.3 2169.75 630.5C2169.75 606.7 2175.35 586.867 2186.55 571C2198.22 554.667 2214.08 542.533 2234.15 534.6C2254.68 526.2 2278.02 522 2304.15 522H2399.35V502.4C2399.35 486.067 2394.22 472.767 2383.95 462.5C2373.68 451.767 2357.35 446.4 2334.95 446.4C2313.02 446.4 2296.68 451.533 2285.95 461.8C2275.22 471.6 2268.22 484.433 2264.95 500.3L2183.75 473C2189.35 455.267 2198.22 439.167 2210.35 424.7C2222.95 409.767 2239.52 397.867 2260.05 389C2281.05 379.667 2306.48 375 2336.35 375C2382.08 375 2418.25 386.433 2444.85 409.3C2471.45 432.167 2484.75 465.3 2484.75 508.7V638.2C2484.75 652.2 2491.28 659.2 2504.35 659.2H2532.35V732H2473.55C2456.28 732 2442.05 727.8 2430.85 719.4C2419.65 711 2414.05 699.8 2414.05 685.8V685.1H2400.75C2398.88 690.7 2394.68 698.167 2388.15 707.5C2381.62 716.367 2371.35 724.3 2357.35 731.3C2343.35 738.3 2324.22 741.8 2299.95 741.8ZM2315.35 670.4C2340.08 670.4 2360.15 663.633 2375.55 650.1C2391.42 636.1 2399.35 617.667 2399.35 594.8V587.8H2310.45C2294.12 587.8 2281.28 591.3 2271.95 598.3C2262.62 605.3 2257.95 615.1 2257.95 627.7C2257.95 640.3 2262.85 650.567 2272.65 658.5C2282.45 666.433 2296.68 670.4 2315.35 670.4ZM2596.84 732V384.8H2683.64V424H2696.24C2701.37 410 2709.77 399.733 2721.44 393.2C2733.57 386.667 2747.57 383.4 2763.44 383.4H2805.44V461.8H2762.04C2739.64 461.8 2721.2 467.867 2706.74 480C2692.27 491.667 2685.04 509.867 2685.04 534.6V732H2596.84ZM3002.07 741.8C2974.54 741.8 2948.64 735.033 2924.37 721.5C2900.57 707.5 2881.44 687.2 2866.97 660.6C2852.5 634 2845.27 601.8 2845.27 564V552.8C2845.27 515 2852.5 482.8 2866.97 456.2C2881.44 429.6 2900.57 409.533 2924.37 396C2948.17 382 2974.07 375 3002.07 375C3023.07 375 3040.57 377.567 3054.57 382.7C3069.04 387.367 3080.7 393.433 3089.57 400.9C3098.44 408.367 3105.2 416.3 3109.87 424.7H3122.47V242H3210.67V732H3123.87V690H3111.27C3103.34 703.067 3090.97 714.967 3074.17 725.7C3057.84 736.433 3033.8 741.8 3002.07 741.8ZM3028.67 664.8C3055.74 664.8 3078.37 656.167 3096.57 638.9C3114.77 621.167 3123.87 595.5 3123.87 561.9V554.9C3123.87 521.3 3114.77 495.867 3096.57 478.6C3078.84 460.867 3056.2 452 3028.67 452C3001.6 452 2978.97 460.867 2960.77 478.6C2942.57 495.867 2933.47 521.3 2933.47 554.9V561.9C2933.47 595.5 2942.57 621.167 2960.77 638.9C2978.97 656.167 3001.6 664.8 3028.67 664.8ZM3291.66 732V614.4L3533.86 335.8V324.6H3298.66V242H3630.46V359.6L3388.26 638.2V649.4H3631.86V732H3291.66Z" fill="black"/>
</g>
</svg>
