<svg width="800" height="180" viewBox="0 0 800 180" fill="none" xmlns="http://www.w3.org/2000/svg">
<path fill-rule="evenodd" clip-rule="evenodd" d="M651.348 53.911C654.406 59.1869 655.407 65.1896 655.737 71.9379L656.171 80.9325V143.829L656.615 152.833C657.502 167.537 668.347 178.41 683.165 179.335L692.121 179.779V80.9325L692.565 71.9379C692.933 65.2651 693.924 59.1492 697.029 53.8355C700.193 48.3852 704.736 43.8633 710.2 40.7238C715.665 37.5842 721.859 35.9375 728.161 35.949C734.463 35.9605 740.651 37.6297 746.104 40.7892C751.557 43.9486 756.083 48.487 759.227 53.9487C762.285 59.2247 763.238 65.3406 763.606 71.9379L764.05 80.9042V143.829L764.494 152.833C765.418 167.613 776.178 178.486 791.043 179.335L800 179.779V71.9379C800 52.8687 792.427 34.5801 778.945 21.0935C765.464 7.60688 747.178 0.0264096 728.109 0.0189017C717.903 0.00813805 707.812 2.17557 698.51 6.37641C689.208 10.5772 680.91 16.7147 674.17 24.3789C667.427 16.7178 659.128 10.5817 649.827 6.37967C640.526 2.17759 630.437 0.0059507 620.231 0.00946167C605.3 0.00946167 591.444 4.5398 579.967 12.3641C572.964 4.54923 557.297 0.00946167 548.302 0.00946167V179.779L557.297 179.335C572.341 178.344 583.214 167.764 583.799 152.833L584.281 143.829V80.9325L584.724 71.9379C585.102 65.1519 586.046 59.1869 589.113 53.8732C592.28 48.4264 596.82 43.9056 602.28 40.7622C607.741 37.6188 613.93 35.9628 620.231 35.9595C626.536 35.9609 632.73 37.6202 638.192 40.771C643.654 43.9217 648.191 48.4533 651.348 53.911ZM35.9501 179.345L44.9447 179.779H179.769L179.326 170.812C178.108 156.032 167.641 145.235 152.814 144.272L143.819 143.829H62.9339L170.775 35.9501L170.331 26.9933C169.633 12.062 158.722 1.27418 143.819 0.453054L134.825 0.0472137L0 0.00946167L0.443595 9.00406C1.62337 23.6427 12.2413 34.6665 26.946 35.5159L35.9501 35.9595H116.835L8.9946 143.838L9.43819 152.833C10.3254 167.651 21.0189 178.382 35.9501 179.335V179.345ZM513.013 26.3231C521.361 34.6695 527.983 44.5787 532.501 55.4846C537.019 66.3906 539.345 78.0798 539.345 89.8846C539.345 101.689 537.019 113.379 532.501 124.285C527.983 135.191 521.361 145.1 513.013 153.446C496.147 170.299 473.28 179.765 449.437 179.765C425.595 179.765 402.728 170.299 385.862 153.446C350.761 118.346 350.761 61.4238 385.862 26.3231C394.202 17.9796 404.104 11.3605 415.003 6.84399C425.902 2.32745 437.583 0.0018632 449.381 2.16682e-05C461.197 -0.00818228 472.9 2.31331 483.818 6.8317C494.737 11.3501 504.658 17.9767 513.013 26.3326V26.3231ZM487.577 51.7779C497.687 61.8959 503.367 75.6142 503.367 89.9177C503.367 104.221 497.687 117.939 487.577 128.057C477.459 138.168 463.741 143.847 449.437 143.847C435.134 143.847 421.415 138.168 411.298 128.057C401.187 117.939 395.508 104.221 395.508 89.9177C395.508 75.6142 401.187 61.8959 411.298 51.7779C421.415 41.6677 435.134 35.9884 449.437 35.9884C463.741 35.9884 477.459 41.6677 487.577 51.7779ZM260.73 2.16682e-05C272.528 0.00310271 284.21 2.33017 295.109 6.84835C306.007 11.3665 315.909 17.9873 324.249 26.3326C359.359 61.4238 359.359 118.355 324.249 153.446C307.383 170.299 284.516 179.765 260.673 179.765C236.831 179.765 213.964 170.299 197.098 153.446C161.997 118.346 161.997 61.4238 197.098 26.3231C205.438 17.9796 215.341 11.3605 226.239 6.84399C237.138 2.32745 248.819 0.0018632 260.617 2.16682e-05H260.73ZM298.813 51.7591C308.926 61.8774 314.607 75.5977 314.607 89.9035C314.607 104.209 308.926 117.93 298.813 128.048C288.695 138.158 274.977 143.838 260.673 143.838C246.37 143.838 232.652 138.158 222.534 128.048C212.423 117.93 206.744 104.212 206.744 89.9082C206.744 75.6047 212.423 61.8864 222.534 51.7685C232.652 41.6582 246.37 35.979 260.673 35.979C274.977 35.979 288.695 41.6582 298.813 51.7685V51.7591Z" fill="#4C4C4C"/>
</svg>
